<svg aria-hidden="true" style="position: absolute; width: 0; height: 0; overflow: hidden;" version="1.1" xmlns="http://www.w3.org/2000/svg" xmlns:xlink="http://www.w3.org/1999/xlink">
<defs>
<symbol id="icon-close" viewBox="0 0 32 32">
<path d="M32 3.223l-3.223-3.223-12.777 12.777-12.777-12.777-3.223 3.223 12.777 12.777-12.777 12.777 3.223 3.223 12.777-12.777 12.777 12.777 3.223-3.223-12.777-12.777 12.777-12.777z"></path>
</symbol>
<symbol id="icon-menu" viewBox="0 0 32 32">
<path d="M4.799 8.001c0-0.424 0.169-0.831 0.469-1.131s0.707-0.469 1.131-0.469h19.2c0.424 0 0.831 0.169 1.131 0.469s0.469 0.707 0.469 1.131-0.169 0.831-0.469 1.131c-0.3 0.3-0.707 0.469-1.131 0.469h-19.2c-0.424 0-0.831-0.169-1.131-0.469s-0.469-0.707-0.469-1.131z"></path>
<path d="M4.799 16.001c0-0.424 0.169-0.831 0.469-1.131s0.707-0.469 1.131-0.469h19.2c0.424 0 0.831 0.169 1.131 0.469s0.469 0.707 0.469 1.131c0 0.424-0.169 0.831-0.469 1.131s-0.707 0.469-1.131 0.469h-19.2c-0.424 0-0.831-0.169-1.131-0.469s-0.469-0.707-0.469-1.131z"></path>
<path d="M4.799 24.001c0-0.424 0.169-0.831 0.469-1.131s0.707-0.469 1.131-0.469h19.2c0.424 0 0.831 0.169 1.131 0.469s0.469 0.707 0.469 1.131c0 0.424-0.169 0.831-0.469 1.131s-0.707 0.469-1.131 0.469h-19.2c-0.424 0-0.831-0.169-1.131-0.469s-0.469-0.707-0.469-1.131z"></path>
</symbol>
<symbol id="icon-map" viewBox="0 0 32 32">
<path stroke-linejoin="round" stroke-linecap="round" stroke-miterlimit="4" stroke-width="3" d="M28 13.333c0 9.333-12 17.333-12 17.333s-12-8-12-17.333c0-3.183 1.264-6.235 3.515-8.485s5.303-3.515 8.485-3.515c3.183 0 6.235 1.264 8.485 3.515s3.515 5.303 3.515 8.485z"></path>
<path stroke-linejoin="round" stroke-linecap="round" stroke-miterlimit="4" stroke-width="3" d="M16 17.333c2.209 0 4-1.791 4-4s-1.791-4-4-4c-2.209 0-4 1.791-4 4s1.791 4 4 4z"></path>
</symbol>
<symbol id="icon-logo" viewBox="0 0 24 32">
<path d="M4.844 3.321c-1.129 1.144-1.327 1.347-1.409 1.444-0.036 0.041-0.074 0.077-0.084 0.077-0.025 0.001-0.052 0.076-0.037 0.108 0.006 0.013 0.188 0.207 0.404 0.43s0.379 0.394 0.363 0.382c-0.022-0.016-0.021-0.012 0.006 0.018 0.019 0.022 0.041 0.037 0.047 0.033 0.007-0.004 0.025 0 0.041 0.009 0.039 0.021 0.052 0.007 0.97-0.908l0.739-0.739-0.012-0.794c-0.006-0.437-0.015-0.836-0.019-0.884-0.010-0.086-0.012-0.089-0.055-0.093-0.041-0.004-0.113 0.064-0.956 0.919z"></path>
<path d="M18.154 2.418c-0.012 0.019-0.033 0.859-0.034 1.401l-0.001 0.36 0.738 0.736c0.916 0.914 0.929 0.927 0.967 0.907 0.016-0.009 0.034-0.013 0.041-0.009 0.006 0.004 0.028-0.010 0.047-0.033 0.027-0.030 0.028-0.034 0.006-0.018-0.016 0.012 0.147-0.16 0.363-0.382s0.399-0.416 0.404-0.43c0.015-0.033-0.012-0.107-0.037-0.108-0.010 0-0.049-0.036-0.084-0.077-0.081-0.098-0.28-0.301-1.407-1.443-0.767-0.779-0.917-0.923-0.951-0.923-0.022 0-0.046 0.007-0.052 0.018z"></path>
<path d="M5.696 5.015c-0.311 0.295-1.133 1.15-1.133 1.181 0 0.022 0.921 0.923 0.95 0.927 0.021 0.004 0.083-0.049 0.213-0.178l0.185-0.184-0.001-0.489c-0.001-0.268-0.007-0.702-0.012-0.964l-0.009-0.476-0.193 0.182z"></path>
<path d="M18.099 5.464c-0.006 0.348-0.010 0.782-0.010 0.964v0.333l0.185 0.184c0.13 0.129 0.193 0.182 0.213 0.178 0.028-0.004 0.95-0.905 0.95-0.927 0-0.031-0.862-0.927-1.153-1.2l-0.176-0.164-0.009 0.633z"></path>
<path d="M11.585 5.135c-0.253 0.031-0.636 0.133-0.827 0.222-0.105 0.047-0.11 0.052-0.101 0.090 0.006 0.024 0.024 0.279 0.039 0.567 0.107 1.959 0.156 2.833 0.2 3.649 0.028 0.513 0.052 0.957 0.052 0.988v0.056l-0.151 0.010c-0.72 0.050-1.975 0.354-2.923 0.707-0.756 0.281-1.593 0.68-1.833 0.871l-0.053 0.044-0.077-0.052c-0.095-0.064-0.185-0.093-0.219-0.071-0.024 0.013-0.025 0.201-0.030 2.433-0.004 2.369-0.004 2.416 0.024 2.428 0.016 0.006 0.264 0.24 0.55 0.521l0.521 0.51-1.099 1.099 0.001 2.689c0.001 1.477 0.006 2.711 0.010 2.739 0.007 0.044 0.101 0.144 0.631 0.671 0.483 0.483 0.628 0.618 0.652 0.615 0.027-0.003 0.036-0.019 0.046-0.087 0.007-0.047 0.007-1.321 0-3.037-0.009-2.003-0.009-2.966 0.001-2.993 0.007-0.021 0.102-0.12 0.207-0.221 0.224-0.213 0.972-0.951 2.319-2.287 0.526-0.523 1.044-1.037 1.153-1.142l0.197-0.193-0.030 0.081c-0.049 0.141-0.116 0.301-0.284 0.683-0.096 0.219-0.16 0.379-0.154 0.396 0.004 0.013 0.073 0.076 0.151 0.136 0.647 0.504 1.016 0.831 1.287 1.142 0.151 0.173 0.157 0.173 0.308 0 0.271-0.311 0.64-0.639 1.287-1.142 0.079-0.061 0.147-0.123 0.151-0.136 0.006-0.016-0.058-0.176-0.154-0.396-0.169-0.382-0.236-0.542-0.284-0.683l-0.030-0.081 0.197 0.193c0.108 0.105 0.627 0.619 1.153 1.142 1.347 1.336 2.095 2.074 2.319 2.287 0.107 0.101 0.2 0.2 0.207 0.221 0.010 0.027 0.010 0.99 0.001 2.993-0.007 1.716-0.007 2.99 0 3.037 0.010 0.068 0.019 0.084 0.046 0.087 0.024 0.003 0.169-0.132 0.652-0.615 0.53-0.527 0.624-0.627 0.631-0.671 0.004-0.028 0.009-1.262 0.010-2.739l0.001-2.689-1.099-1.099 0.521-0.51c0.286-0.281 0.533-0.516 0.55-0.521 0.028-0.012 0.028-0.059 0.024-2.428-0.004-2.231-0.006-2.419-0.030-2.433-0.034-0.022-0.124 0.007-0.219 0.071l-0.077 0.052-0.053-0.044c-0.24-0.191-1.077-0.59-1.833-0.871-0.948-0.353-2.203-0.656-2.921-0.707l-0.153-0.010v-0.056c0-0.031 0.024-0.476 0.052-0.988 0.044-0.816 0.093-1.69 0.2-3.649 0.015-0.289 0.033-0.544 0.039-0.567 0.009-0.039 0.004-0.043-0.101-0.090-0.136-0.064-0.401-0.145-0.613-0.188-0.141-0.028-0.215-0.033-0.576-0.036-0.228-0.003-0.439-0.001-0.467 0.001zM11.089 13.748c0.044 0.462 0.044 1.049 0.001 1.092-0.003 0.003-0.498 0.016-1.101 0.027-0.601 0.012-1.372 0.028-1.711 0.037-0.339 0.010-0.636 0.013-0.659 0.009-0.059-0.013-0.2 0.016-0.233 0.049-0.021 0.021-0.025 0.039-0.018 0.071 0.007 0.028 0.201 0.23 0.625 0.65l0.615 0.609-0.241 0.236c-0.133 0.129-0.505 0.496-0.827 0.816l-0.585 0.582-0.003-0.345c-0.003-0.188-0.006-0.999-0.007-1.8l-0.004-1.455 0.259-0.111c0.773-0.329 1.498-0.576 2.213-0.757 0.378-0.093 0.681-0.15 1.153-0.213 0.187-0.025 0.348-0.049 0.36-0.053 0.012-0.006 0.022-0.024 0.022-0.043 0-0.018 0.012-0.083 0.025-0.142l0.025-0.11 0.034 0.304c0.018 0.167 0.043 0.413 0.056 0.548zM13.028 13.012c0.013 0.056 0.024 0.117 0.024 0.136 0 0.018 0.010 0.037 0.022 0.043 0.012 0.004 0.173 0.028 0.36 0.053 0.551 0.074 1.12 0.19 1.489 0.302l0.071 0.021 0.041-0.064c0.022-0.034 0.076-0.148 0.12-0.25 0.043-0.102 0.081-0.184 0.084-0.181s-0.015 0.11-0.039 0.237c-0.050 0.255-0.055 0.304-0.027 0.311 0.519 0.156 1.090 0.366 1.662 0.61l0.222 0.095-0.004 1.456c-0.001 0.8-0.004 1.61-0.007 1.799l-0.003 0.345-0.585-0.582c-0.321-0.32-0.693-0.687-0.827-0.816l-0.241-0.236 0.615-0.609c0.416-0.413 0.618-0.622 0.625-0.65 0.012-0.049-0.022-0.093-0.081-0.107-0.022-0.004-0.193-0.010-0.381-0.013-0.187-0.003-0.563-0.010-0.836-0.016-0.273-0.004-0.504-0.004-0.513 0.003-0.009 0.006-0.064 0.145-0.121 0.308s-0.105 0.292-0.107 0.287c0-0.004 0.016-0.114 0.037-0.244 0.021-0.129 0.037-0.267 0.037-0.304v-0.068l-0.662-0.010c-0.366-0.004-0.761-0.013-0.881-0.018l-0.219-0.010-0.010-0.053c-0.018-0.079-0.012-0.736 0.007-0.935 0.033-0.341 0.098-0.947 0.101-0.944 0.001 0.001 0.015 0.049 0.027 0.104z"></path>
<path d="M2.818 5.342c-0.015 0.027-0.007 1.077 0.010 1.559 0.010 0.28 0.013 0.304 0.043 0.333 0.028 0.028 0.033 0.028 0.033 0.006 0-0.013 0.003-0.025 0.004-0.025 0.003 0 0.335 0.329 0.738 0.73s1.084 1.079 1.516 1.505l0.784 0.773-0.053 0.173c-0.156 0.502-0.256 1.197-0.209 1.439 0.015 0.073 0.067 0.077 0.138 0.012 0.227-0.204 0.961-0.6 1.564-0.843 0.415-0.167 0.973-0.347 1.452-0.47 0.596-0.151 1.516-0.311 1.69-0.293 0.041 0.004 0.083 0.003 0.093-0.003 0.016-0.010-0.043-1.233-0.176-3.594-0.046-0.809-0.046-0.809-0.070-0.818-0.061-0.024-0.455 0.119-0.812 0.292-1.024 0.499-1.996 1.356-2.739 2.415-0.089 0.127-0.127 0.194-0.127 0.224 0 0.050 0.044 0.142 0.21 0.436l0.117 0.207-1.382-1.378c-1.772-1.766-2.462-2.45-2.618-2.591-0.126-0.114-0.179-0.138-0.206-0.089z"></path>
<path d="M20.976 5.431c-0.156 0.141-0.846 0.825-2.618 2.591l-1.382 1.378 0.117-0.207c0.166-0.293 0.21-0.385 0.21-0.436 0-0.046-0.154-0.276-0.378-0.563-0.754-0.967-1.747-1.766-2.711-2.181-0.348-0.148-0.559-0.204-0.597-0.159-0.018 0.024-0.034 0.25-0.107 1.604-0.033 0.594-0.079 1.461-0.104 1.924-0.037 0.662-0.043 0.846-0.028 0.855 0.010 0.006 0.052 0.007 0.093 0.003 0.175-0.018 1.095 0.142 1.69 0.293 0.479 0.123 1.037 0.302 1.452 0.47 0.603 0.243 1.338 0.639 1.564 0.843 0.071 0.065 0.123 0.061 0.138-0.012 0.047-0.241-0.053-0.936-0.209-1.439l-0.053-0.173 0.784-0.773c0.431-0.427 1.113-1.104 1.516-1.505s0.735-0.73 0.738-0.73c0.001 0 0.004 0.012 0.004 0.025 0 0.022 0.004 0.022 0.033-0.006 0.030-0.030 0.033-0.053 0.043-0.333 0.018-0.481 0.025-1.532 0.010-1.559-0.027-0.049-0.080-0.025-0.206 0.089z"></path>
<path d="M2.83 8.665c0 0.554 0.006 0.874 0.015 0.901 0.016 0.043 2.203 2.225 2.262 2.258 0.027 0.015 0.040 0.013 0.071-0.007 0.033-0.021 0.037-0.034 0.037-0.11 0-0.176 0.084-0.723 0.172-1.11 0.036-0.16 0.047-0.234 0.037-0.259-0.016-0.043-2.357-2.364-2.481-2.459-0.049-0.039-0.095-0.071-0.101-0.071-0.007 0-0.012 0.387-0.012 0.858z"></path>
<path d="M21.058 7.879c-0.124 0.095-2.465 2.416-2.481 2.459-0.010 0.025 0.001 0.099 0.037 0.259 0.087 0.387 0.172 0.933 0.172 1.11 0 0.076 0.004 0.089 0.037 0.11 0.031 0.021 0.044 0.022 0.071 0.007 0.059-0.033 2.246-2.215 2.262-2.258 0.018-0.049 0.021-1.759 0.004-1.759-0.007 0-0.053 0.033-0.102 0.071z"></path>
<path d="M2.844 11.298c0 0.861 0.003 1.019 0.021 1.037 0.012 0.012 0.024 0.021 0.027 0.021s0.335 0.329 0.738 0.73c1.409 1.403 1.424 1.416 1.461 1.357 0.012-0.021 0.049-1.228 0.050-1.637v-0.299l-0.929-0.916c-0.513-0.505-0.997-0.981-1.079-1.056-0.081-0.077-0.175-0.164-0.209-0.196-0.033-0.033-0.064-0.058-0.070-0.058s-0.010 0.458-0.010 1.016z"></path>
<path d="M21.081 10.332c-0.028 0.028-0.121 0.117-0.207 0.196-0.086 0.080-0.573 0.559-1.084 1.062l-0.93 0.917v0.299c0.001 0.409 0.039 1.616 0.050 1.637 0.037 0.059 0.052 0.046 1.461-1.357 0.403-0.401 0.735-0.73 0.738-0.73s0.015-0.009 0.027-0.021c0.018-0.018 0.021-0.176 0.021-1.037 0-0.559-0.006-1.016-0.012-1.016s-0.034 0.022-0.062 0.050z"></path>
<path d="M9.887 17.579c-0.009 0.003-0.239 0.236-0.51 0.514-0.273 0.279-0.812 0.828-1.199 1.222l-0.705 0.716-0.009 0.084c-0.013 0.116-0.015 2.619-0.004 4.649l0.010 1.673 0.65 0.652c0.559 0.56 0.653 0.649 0.676 0.636 0.024-0.016 0.025-0.215 0.030-3.607l0.003-3.591 1.067-1.067c0.736-0.735 1.064-1.073 1.059-1.089-0.004-0.012-0.074-0.074-0.153-0.136s-0.296-0.237-0.484-0.388c-0.332-0.267-0.37-0.292-0.431-0.267z"></path>
<path d="M13.681 17.846c-0.187 0.151-0.406 0.326-0.484 0.388s-0.148 0.124-0.153 0.136c-0.004 0.016 0.323 0.354 1.059 1.089l1.067 1.067 0.003 3.591c0.004 3.393 0.006 3.591 0.030 3.607 0.022 0.013 0.117-0.076 0.676-0.636l0.65-0.652 0.010-1.673c0.010-2.030 0.009-4.533-0.004-4.649l-0.009-0.084-0.705-0.716c-0.387-0.394-0.926-0.944-1.199-1.222-0.271-0.279-0.502-0.51-0.514-0.516-0.058-0.021-0.102 0.007-0.427 0.268z"></path>
<path d="M10.772 19.372c-0.040 0.050-0.039 0.056 0.010 0.102 0.107 0.104 1.176 0.837 1.218 0.837s1.111-0.733 1.219-0.837c0.047-0.046 0.049-0.052 0.009-0.102l-0.030-0.039h-2.397l-0.030 0.039z"></path>
<path d="M9.28 20.772c-0.027 0.030-0.028 0.070-0.030 0.99-0.001 0.526 0.006 2.199 0.015 3.716l0.018 2.76 0.222 0.225c0.121 0.124 0.401 0.407 0.621 0.631 0.221 0.222 0.403 0.41 0.404 0.418 0.009 0.024 0.058 0.016 0.068-0.009 0.012-0.030 0.007-4.775-0.006-6.791-0.006-0.905-0.016-1.585-0.024-1.615-0.015-0.052-0.015-0.052-0.132-0.068-0.127-0.018-0.228-0.044-0.751-0.193-0.184-0.052-0.345-0.095-0.357-0.095-0.010 0-0.033 0.013-0.049 0.031z"></path>
<path d="M14.593 20.756c-0.191 0.062-0.923 0.258-1.022 0.271l-0.124 0.018-0.015 0.052c-0.007 0.030-0.018 0.71-0.024 1.615-0.013 2.016-0.018 6.761-0.006 6.791 0.010 0.025 0.059 0.033 0.068 0.009 0.003-0.007 0.185-0.196 0.404-0.418 0.221-0.224 0.499-0.507 0.621-0.631l0.222-0.225 0.018-2.76c0.009-1.517 0.016-3.19 0.015-3.716-0.001-0.92-0.003-0.96-0.030-0.99-0.030-0.033-0.065-0.037-0.127-0.016z"></path>
<path d="M11.095 21.21c-0.013 0.015-0.024 0.081-0.028 0.196-0.015 0.324 0.010 8.556 0.027 8.594 0.025 0.062 0.87 0.904 0.907 0.904s0.881-0.841 0.907-0.904c0.016-0.039 0.041-8.27 0.027-8.594-0.004-0.114-0.015-0.181-0.028-0.196-0.018-0.024-0.099-0.025-0.905-0.025s-0.887 0.001-0.905 0.025z"></path>
</symbol>
<symbol id="icon-arrow" viewBox="0 0 32 32">
<path d="M14.432 15.862c-3.814-0.031-7.628-0.056-11.441-0.097-0.76-0.008-1.521-0.068-2.278-0.143-0.125-0.014-0.243-0.065-0.339-0.147s-0.165-0.191-0.197-0.312c-0.062-0.195 0.154-0.471 0.412-0.512 0.25-0.039 0.499-0.1 0.751-0.116 1.607-0.097 3.214-0.235 4.822-0.264 3.305-0.059 6.61-0.074 9.915-0.078 3.136-0.004 6.272 0.036 9.407 0.043 0.504 0.001 1.007-0.062 1.51-0.107 0.033-0.008 0.064-0.025 0.089-0.048s0.044-0.052 0.056-0.085c0.009-0.078-0.014-0.209-0.066-0.236-0.964-0.524-1.915-1.075-2.906-1.542-2.305-1.088-4.468-2.421-6.628-3.759-0.355-0.22-0.727-0.443-0.871-0.88-0.026-0.079-0.067-0.215-0.034-0.242 0.119-0.111 0.263-0.19 0.419-0.231 0.167-0.020 0.336 0.007 0.488 0.078 0.54 0.245 1.076 0.5 1.601 0.774 3.755 1.96 7.508 3.923 11.261 5.888 1.417 0.737 2.091 1.452 0.39 3.073-0.49 0.467-0.986 0.934-1.519 1.349-2.472 1.929-4.953 3.846-7.443 5.751-0.342 0.246-0.703 0.464-1.080 0.654-0.245 0.133-0.491 0.054-0.703-0.106-0.233-0.176-0.378-0.687-0.298-0.912 0.179-0.499 0.535-0.866 0.917-1.197 1.472-1.277 2.953-2.545 4.44-3.804 0.967-0.823 1.944-1.633 2.91-2.457 0.048-0.041 0.050-0.167 0.031-0.243-0.013-0.033-0.033-0.062-0.060-0.085s-0.058-0.040-0.092-0.048c-0.505-0.033-1.010-0.075-1.515-0.073-3.983 0.021-7.967 0.047-11.95 0.079l0 0.037z"></path>
</symbol>
<symbol id="icon-arrow-next" viewBox="0 0 32 32">
<path d="M12.948 24.391c0.521 0.521 1.365 0.521 1.886 0l6.517-6.523c1.041-1.041 1.040-2.729-0.001-3.77l-6.521-6.52c-0.521-0.521-1.365-0.521-1.886 0s-0.521 1.365 0 1.886l5.581 5.581c0.521 0.521 0.521 1.365 0 1.886l-5.576 5.576c-0.521 0.521-0.521 1.365 0 1.886z"></path>
</symbol>
<symbol id="icon-arrow-prev" viewBox="0 0 32 32">
<path d="M19.052 7.609c-0.521-0.521-1.365-0.521-1.886 0l-6.517 6.523c-1.041 1.042-1.040 2.729 0.001 3.77l6.52 6.521c0.521 0.521 1.365 0.521 1.886 0s0.521-1.365 0-1.886l-5.581-5.581c-0.521-0.521-0.521-1.365 0-1.886l5.576-5.576c0.521-0.521 0.521-1.365 0-1.886z"></path>
</symbol>
<!-- social media -->
<symbol id="icon-instagram" viewBox="0 0 32 32">
<path d="M31.969 9.408c-0.075-1.7-0.35-2.869-0.744-3.882-0.406-1.075-1.031-2.038-1.85-2.838-0.8-0.813-1.769-1.444-2.832-1.844-1.019-0.394-2.182-0.669-3.882-0.744-1.713-0.081-2.257-0.1-6.601-0.1s-4.888 0.019-6.595 0.094c-1.7 0.075-2.869 0.35-3.882 0.744-1.075 0.406-2.038 1.031-2.838 1.85-0.813 0.8-1.444 1.769-1.844 2.832-0.394 1.019-0.669 2.182-0.744 3.882-0.081 1.713-0.1 2.257-0.1 6.601s0.019 4.888 0.094 6.595c0.075 1.7 0.35 2.869 0.744 3.882 0.406 1.075 1.038 2.038 1.85 2.838 0.8 0.813 1.769 1.444 2.832 1.844 1.019 0.394 2.182 0.669 3.882 0.744 1.706 0.075 2.25 0.094 6.595 0.094s4.888-0.019 6.595-0.094c1.7-0.075 2.869-0.35 3.882-0.744 2.151-0.831 3.851-2.532 4.682-4.682 0.394-1.019 0.669-2.182 0.744-3.882 0.075-1.707 0.094-2.25 0.094-6.595s-0.006-4.888-0.081-6.595zM29.087 22.473c-0.069 1.563-0.331 2.407-0.55 2.969-0.538 1.394-1.644 2.5-3.038 3.038-0.563 0.219-1.413 0.481-2.969 0.55-1.688 0.075-2.194 0.094-6.464 0.094s-4.782-0.019-6.464-0.094c-1.563-0.069-2.407-0.331-2.969-0.55-0.694-0.256-1.325-0.663-1.838-1.194-0.531-0.519-0.938-1.144-1.194-1.838-0.219-0.563-0.481-1.413-0.55-2.969-0.075-1.688-0.094-2.194-0.094-6.464s0.019-4.782 0.094-6.464c0.069-1.563 0.331-2.407 0.55-2.969 0.256-0.694 0.663-1.325 1.2-1.838 0.519-0.531 1.144-0.938 1.838-1.194 0.563-0.219 1.413-0.481 2.969-0.55 1.688-0.075 2.194-0.094 6.464-0.094 4.276 0 4.782 0.019 6.464 0.094 1.563 0.069 2.407 0.331 2.969 0.55 0.694 0.256 1.325 0.662 1.838 1.194 0.531 0.519 0.938 1.144 1.194 1.838 0.219 0.563 0.481 1.413 0.55 2.969 0.075 1.688 0.094 2.194 0.094 6.464s-0.019 4.77-0.094 6.458z"></path>
<path d="M16.059 7.783c-4.538 0-8.22 3.682-8.22 8.22s3.682 8.22 8.22 8.22c4.538 0 8.22-3.682 8.22-8.22s-3.682-8.22-8.22-8.22zM16.059 21.335c-2.944 0-5.332-2.388-5.332-5.332s2.388-5.332 5.332-5.332c2.944 0 5.332 2.388 5.332 5.332s-2.388 5.332-5.332 5.332z"></path>
<path d="M26.524 7.458c0 1.060-0.859 1.919-1.919 1.919s-1.919-0.859-1.919-1.919c0-1.060 0.859-1.919 1.919-1.919s1.919 0.859 1.919 1.919z"></path>
</symbol>
<symbol id="icon-facebook" viewBox="0 0 32 32">
<path d="M21.329 5.313h2.921v-5.088c-0.504-0.069-2.237-0.225-4.256-0.225-4.212 0-7.097 2.649-7.097 7.519v4.481h-4.648v5.688h4.648v14.312h5.699v-14.311h4.46l0.708-5.688h-5.169v-3.919c0.001-1.644 0.444-2.769 2.735-2.769z"></path>
</symbol>
<symbol id="icon-whatsapp" viewBox="0 0 32 32">
<path d="M4.053 24.961l0.954 0.477 0.295-0.59-0.396-0.528-0.853 0.641zM7.039 27.947l0.641-0.853-0.528-0.396-0.59 0.295 0.477 0.954zM1.067 30.933l-0.954-0.477c-0.205 0.411-0.125 0.907 0.2 1.231s0.821 0.405 1.231 0.2l-0.477-0.954zM9.6 9.6l-0.592-0.888c-0.297 0.198-0.475 0.531-0.475 0.888h1.067zM22.4 22.4v1.067c0.357 0 0.69-0.178 0.887-0.475l-0.887-0.592zM13.342 10.721v0zM13.64 12.506v0zM12.719 14.632v0zM22.703 21.945v0zM21.279 18.658v0zM19.494 18.36v0zM17.368 19.281v0zM0 16c0 3.601 1.191 6.927 3.2 9.602l1.706-1.281c-1.741-2.318-2.772-5.197-2.772-8.32h-2.133zM16 0c-8.837 0-16 7.163-16 16h2.133c0-7.658 6.208-13.867 13.867-13.867v-2.133zM32 16c0-8.837-7.164-16-16-16v2.133c7.658 0 13.867 6.208 13.867 13.867h2.133zM16 32c8.836 0 16-7.164 16-16h-2.133c0 7.658-6.208 13.867-13.867 13.867v2.133zM6.398 28.8c2.674 2.009 6 3.2 9.602 3.2v-2.133c-3.123 0-6.003-1.031-8.32-2.772l-1.281 1.706zM1.544 31.887l5.972-2.986-0.954-1.908-5.972 2.986 0.954 1.908zM3.099 24.484l-2.986 5.972 1.908 0.954 2.986-5.972-1.908-0.954zM8.533 9.6v2.133h2.133v-2.133h-2.133zM20.267 23.467h2.133v-2.133h-2.133v2.133zM8.533 11.733c0 6.48 5.253 11.733 11.733 11.733v-2.133c-5.302 0-9.6-4.298-9.6-9.6h-2.133zM10.192 10.488l0.455-0.303-1.183-1.775-0.455 0.303 1.183 1.775zM12.29 10.896l0.297 1.785 2.104-0.351-0.297-1.785-2.104 0.351zM12.127 13.744l-2.052 1.368 1.183 1.775 2.052-1.368-1.183-1.775zM12.588 12.681c0.069 0.414-0.111 0.83-0.46 1.063l1.183 1.775c1.048-0.698 1.588-1.947 1.381-3.189l-2.104 0.351zM10.646 10.184c0.644-0.429 1.517-0.051 1.644 0.712l2.104-0.351c-0.382-2.29-2.999-3.425-4.931-2.136l1.183 1.775zM23.287 22.992l0.303-0.455-1.775-1.183-0.303 0.455 1.775 1.184zM21.454 17.605l-1.785-0.297-0.351 2.104 1.785 0.297 0.351-2.104zM16.481 18.689l-1.368 2.052 1.775 1.183 1.368-2.052-1.775-1.183zM19.669 17.308c-1.242-0.207-2.49 0.334-3.189 1.381l1.775 1.183c0.233-0.349 0.649-0.529 1.063-0.46l0.351-2.104zM23.591 22.537c1.288-1.932 0.154-4.55-2.136-4.932l-0.351 2.104c0.764 0.127 1.141 1 0.712 1.644l1.775 1.183z"></path>
</symbol>
<symbol id="icon-letter" viewBox="0 0 32 32">
<path d="M13.258 4.333h5.484c2.45-0 4.391-0 5.91 0.204 1.563 0.21 2.829 0.653 3.826 1.651s1.441 2.263 1.651 3.826c0.204 1.519 0.204 3.46 0.204 5.91v0.15c0 2.45 0 4.391-0.204 5.91-0.21 1.563-0.653 2.829-1.651 3.826s-2.263 1.441-3.826 1.651c-1.519 0.204-3.46 0.204-5.91 0.204h-5.484c-2.45 0-4.391 0-5.91-0.204-1.563-0.21-2.829-0.653-3.826-1.651s-1.441-2.263-1.651-3.826c-0.204-1.519-0.204-3.46-0.204-5.91v-0.15c-0-2.45-0-4.391 0.204-5.91 0.21-1.563 0.653-2.829 1.651-3.826s2.263-1.441 3.826-1.651c1.519-0.204 3.46-0.204 5.91-0.204zM7.614 6.52c-1.341 0.18-2.114 0.519-2.679 1.083s-0.902 1.337-1.083 2.679c-0.184 1.37-0.186 3.176-0.186 5.719s0.002 4.349 0.186 5.719c0.18 1.341 0.519 2.114 1.083 2.679s1.337 0.903 2.679 1.083c1.37 0.184 3.176 0.186 5.719 0.186h5.333c2.542 0 4.349-0.002 5.719-0.186 1.341-0.18 2.114-0.519 2.679-1.083s0.903-1.337 1.083-2.679c0.184-1.37 0.186-3.177 0.186-5.719s-0.002-4.349-0.186-5.719c-0.18-1.341-0.519-2.114-1.083-2.679s-1.337-0.902-2.679-1.083c-1.37-0.184-3.177-0.186-5.719-0.186h-5.333c-2.542 0-4.349 0.002-5.719 0.186zM7.232 10.026c0.354-0.424 0.984-0.482 1.408-0.128l2.879 2.399c1.244 1.037 2.108 1.754 2.837 2.223 0.706 0.454 1.184 0.606 1.645 0.606s0.939-0.152 1.645-0.606c0.729-0.469 1.593-1.186 2.837-2.223l2.879-2.399c0.424-0.354 1.055-0.296 1.408 0.128s0.296 1.055-0.128 1.408l-2.929 2.441c-1.182 0.985-2.14 1.783-2.985 2.327-0.881 0.566-1.738 0.924-2.726 0.924s-1.846-0.358-2.726-0.924c-0.845-0.544-1.803-1.342-2.985-2.327l-2.929-2.441c-0.424-0.354-0.482-0.984-0.128-1.408z"></path>
</symbol>
<symbol id="icon-phone" viewBox="0 0 32 32">
<path d="M22 20c-2 2-2 4-4 4s-4-2-6-4-4-4-4-6 2-2 4-4-4-8-6-8-6 6-6 6c0 4 4.109 12.109 8 16s12 8 16 8c0 0 6-4 6-6s-6-8-8-6z"></path>
</symbol>
<!-- ........... -->
<symbol id="icon-google-map" viewBox="0 0 32 32">
<path d="M26.242 5.67l-5.081 2.957-5.443-2.95-5.506 3.022h-10.212v17.228h10.48l5.242-3.324 5.464 3.421 4.922-3.445 5.893 3.75v-17.428l-5.758-3.232zM0.979 24.948v-15.27h8.858l0.010 15.27h-8.868zM20.673 16.64l-0.709-0.473-0.543 0.815 1.252 0.835v6.732l-4.471-2.8h0.032v-6.235l0.725 0.483 0.543-0.815-1.268-0.846v-5.905h-0.979v5.918l-1.25 0.833 0.543 0.815 0.707-0.471v6.214l-4.428 2.808-0.010-15.063 4.439-2.437v0.47h0.979v-0.447l4.439 2.406v7.163zM25.635 20.77v0.945l-3.982 2.788v-6.676l1.266-0.844-0.543-0.815-0.723 0.482v-7.175l3.982-2.317v7.166l-1.29 0.86 0.543 0.815 0.747-0.498v4.226h0.979v-4.185l0.685 0.457 0.543-0.815-1.229-0.819v-7.361l4.407 2.473v15.070l-4.407-2.804v-0.972h-0.979z"></path>
<path d="M5.414 10.669c-1.356 0-2.459 1.103-2.459 2.459 0 1.204 1.736 3.344 2.083 3.761l0.376 0.45 0.376-0.45c0.348-0.417 2.083-2.556 2.083-3.761 0-1.356-1.103-2.459-2.459-2.459zM5.413 15.79c-0.705-0.92-1.48-2.132-1.48-2.662 0-0.816 0.664-1.48 1.48-1.48s1.48 0.664 1.48 1.48c0 0.53-0.775 1.742-1.48 2.662z"></path>
<path d="M4.941 12.871h0.914v0.979h-0.914v-0.979z"></path>
<path d="M2.982 18.289h4.896v0.979h-4.896v-0.979z"></path>
<path d="M3.896 19.79h3.003v0.979h-3.003v-0.979z"></path>
<path d="M3.439 23.185h1.044v0.979h-1.045v-0.979z"></path>
<path d="M4.941 23.185h0.914v0.979h-0.914v-0.979z"></path>
<path d="M6.442 23.185h0.914v0.979h-0.914v-0.979z"></path>
</symbol>
<symbol id="icon-star" viewBox="0 0 32 32">
<path stroke-linejoin="miter" stroke-linecap="butt" stroke-miterlimit="4" stroke-width="2.4" d="M12.4 9.394l3.6-6.822 3.6 6.822c0.318 0.603 0.899 1.025 1.571 1.141l7.601 1.315-5.376 5.532c-0.475 0.489-0.697 1.171-0.6 1.846l1.098 7.635-6.922-3.404c-0.612-0.301-1.329-0.301-1.941 0l-6.922 3.404 1.098-7.635c0.097-0.675-0.125-1.357-0.6-1.846l-5.376-5.532 7.601-1.315c0.672-0.116 1.252-0.538 1.571-1.141zM29.035 11.579v0zM7.767 27.031c0 0 0 0 0 0h-0z"></path>
</symbol>
<symbol id="icon-checkmark" viewBox="0 0 32 32">
<path d="M27 4l-15 15-7-7-5 5 12 12 20-20z"></path>
</symbol>

<!-- login-page -->
<symbol id="icon-eye" viewBox="0 0 32 32">
<path stroke-linejoin="round" stroke-linecap="round" stroke-miterlimit="4" stroke-width="3.2" d="M1.333 16c0 0 5.333-10.667 14.667-10.667s14.667 10.667 14.667 10.667c0 0-5.333 10.667-14.667 10.667s-14.667-10.667-14.667-10.667z"></path>
<path stroke-linejoin="round" stroke-linecap="round" stroke-miterlimit="4" stroke-width="3.2" d="M16 20c2.209 0 4-1.791 4-4s-1.791-4-4-4c-2.209 0-4 1.791-4 4s1.791 4 4 4z"></path>
</symbol>
<symbol id="icon-eye-off" viewBox="0 0 32 32">
<path stroke-linejoin="round" stroke-linecap="round" stroke-miterlimit="4" stroke-width="3.2" d="M23.92 23.92c-2.279 1.737-5.055 2.7-7.92 2.747-9.333 0-14.667-10.667-14.667-10.667 1.659-3.091 3.959-5.791 6.747-7.92M13.2 5.653c0.918-0.215 1.857-0.322 2.8-0.32 9.333 0 14.667 10.667 14.667 10.667-0.809 1.514-1.775 2.94-2.88 4.253M18.827 18.827c-0.366 0.393-0.808 0.708-1.298 0.927s-1.020 0.336-1.557 0.346-1.071-0.089-1.569-0.291c-0.498-0.201-0.95-0.5-1.33-0.88s-0.679-0.832-0.88-1.33c-0.201-0.498-0.3-1.032-0.29-1.569s0.127-1.067 0.346-1.557 0.534-0.932 0.927-1.298"></path>
<path stroke-linejoin="round" stroke-linecap="round" stroke-miterlimit="4" stroke-width="3.2" d="M1.333 1.333l29.333 29.333"></path>
</symbol>
<!-- ............ -->
<symbol id="icon-trash" viewBox="0 0 32 32">
<path stroke-linejoin="round" stroke-linecap="round" stroke-miterlimit="10" stroke-width="2" d="M20 9h-8v-2c0-2.2 1.8-4 4-4v0c2.2 0 4 1.8 4 4v2z"></path>
<path stroke-linejoin="round" stroke-linecap="round" stroke-miterlimit="10" stroke-width="2" d="M8 14v13c0 1.1 0.9 2 2 2h12c1.1 0 2-0.9 2-2v-13h2v-3c0-1.1-0.9-2-2-2h-16c-1.1 0-2 0.9-2 2v3h18"></path>
<path stroke-linejoin="round" stroke-linecap="round" stroke-miterlimit="10" stroke-width="2" d="M13 19v5"></path>
<path stroke-linejoin="round" stroke-linecap="round" stroke-miterlimit="10" stroke-width="2" d="M19 19v5"></path>
</symbol>
<symbol id="icon-plus" viewBox="0 0 32 32">
<path stroke-linejoin="round" stroke-linecap="round" stroke-miterlimit="4" stroke-width="2.6667" d="M16 6.667v18.667M6.667 16h18.667"></path>
</symbol>
<symbol id="icon-exit" viewBox="0 0 32 32">
<path d="M21.321 10.43c0.399-0.382 1.031-0.369 1.414 0.029l4.653 4.848c0.371 0.387 0.371 0.998 0 1.385l-4.653 4.849c-0.382 0.398-1.015 0.411-1.414 0.029s-0.411-1.015-0.029-1.414l3.029-3.156h-9.29c-0.552 0-1-0.448-1-1s0.448-1 1-1h9.291l-3.029-3.156c-0.382-0.398-0.369-1.031 0.029-1.414z"></path>
<path d="M4.333 5.333c0-0.552 0.448-1 1-1h12.606c0.552 0 1 0.448 1 1v4c0 0.552-0.448 1-1 1s-1-0.448-1-1v-3h-10.606v19.333h10.606v-3c0-0.552 0.448-1 1-1s1 0.448 1 1v4c0 0.552-0.448 1-1 1h-12.606c-0.552 0-1-0.448-1-1v-21.333z"></path>
</symbol>
<symbol id="icon-error" viewBox="0 0 32 32">
<path d="M15.457 26.783c-1.929-1.929-3.893-4.052-5.376-6.277-0.533-0.799-1.009-1.62-1.402-2.458h1.716c0.283 0.534 0.606 1.070 0.963 1.606 1.264 1.896 2.921 3.745 4.641 5.495 1.72-1.75 3.377-3.599 4.641-5.495 0.358-0.536 0.681-1.072 0.963-1.606h1.716c-0.392 0.838-0.869 1.659-1.402 2.458-1.483 2.225-3.447 4.348-5.376 6.277l-0.543 0.543-0.543-0.543zM24.448 13.44c0 0.602-0.063 1.2-0.18 1.792h-1.571c0.141-0.602 0.215-1.2 0.215-1.792 0-4.056-2.856-6.912-6.912-6.912s-6.912 2.856-6.912 6.912c0 0.592 0.075 1.19 0.215 1.792h-1.571c-0.117-0.592-0.18-1.19-0.18-1.792 0-4.904 3.544-8.448 8.448-8.448s8.448 3.544 8.448 8.448zM18.688 13.44c0 0.688-0.259 1.316-0.684 1.792h-4.007c-0.426-0.476-0.684-1.104-0.684-1.792 0-1.485 1.203-2.688 2.688-2.688s2.688 1.203 2.688 2.688zM14.848 13.44c0-0.636 0.516-1.152 1.152-1.152s1.152 0.516 1.152 1.152c0 0.636-0.516 1.152-1.152 1.152s-1.152-0.516-1.152-1.152zM2.56 17.408h26.88v-1.536h-26.88v1.536z"></path>
</symbol>
</defs>
</svg>
