<svg aria-hidden="true" style="position: absolute; width: 0; height: 0; overflow: hidden;" version="1.1" xmlns="http://www.w3.org/2000/svg" xmlns:xlink="http://www.w3.org/1999/xlink">
<defs>
<symbol id="icon-close" viewBox="0 0 32 32">
<path d="M32 3.223l-3.223-3.223-12.777 12.777-12.777-12.777-3.223 3.223 12.777 12.777-12.777 12.777 3.223 3.223 12.777-12.777 12.777 12.777 3.223-3.223-12.777-12.777 12.777-12.777z"></path>
</symbol>
<symbol id="icon-menu" viewBox="0 0 32 32">
<path d="M4.799 8.001c0-0.424 0.169-0.831 0.469-1.131s0.707-0.469 1.131-0.469h19.2c0.424 0 0.831 0.169 1.131 0.469s0.469 0.707 0.469 1.131-0.169 0.831-0.469 1.131c-0.3 0.3-0.707 0.469-1.131 0.469h-19.2c-0.424 0-0.831-0.169-1.131-0.469s-0.469-0.707-0.469-1.131z"></path>
<path d="M4.799 16.001c0-0.424 0.169-0.831 0.469-1.131s0.707-0.469 1.131-0.469h19.2c0.424 0 0.831 0.169 1.131 0.469s0.469 0.707 0.469 1.131c0 0.424-0.169 0.831-0.469 1.131s-0.707 0.469-1.131 0.469h-19.2c-0.424 0-0.831-0.169-1.131-0.469s-0.469-0.707-0.469-1.131z"></path>
<path d="M4.799 24.001c0-0.424 0.169-0.831 0.469-1.131s0.707-0.469 1.131-0.469h19.2c0.424 0 0.831 0.169 1.131 0.469s0.469 0.707 0.469 1.131c0 0.424-0.169 0.831-0.469 1.131s-0.707 0.469-1.131 0.469h-19.2c-0.424 0-0.831-0.169-1.131-0.469s-0.469-0.707-0.469-1.131z"></path>
</symbol>
<symbol id="icon-map" viewBox="0 0 32 32">
<path stroke-linejoin="round" stroke-linecap="round" stroke-miterlimit="4" stroke-width="3" d="M28 13.333c0 9.333-12 17.333-12 17.333s-12-8-12-17.333c0-3.183 1.264-6.235 3.515-8.485s5.303-3.515 8.485-3.515c3.183 0 6.235 1.264 8.485 3.515s3.515 5.303 3.515 8.485z"></path>
<path stroke-linejoin="round" stroke-linecap="round" stroke-miterlimit="4" stroke-width="3" d="M16 17.333c2.209 0 4-1.791 4-4s-1.791-4-4-4c-2.209 0-4 1.791-4 4s1.791 4 4 4z"></path>
</symbol>
<!-- social media -->
<symbol id="icon-whatsapp" viewBox="0 0 32 32">
<path d="M4.053 24.961l0.954 0.477 0.295-0.59-0.396-0.528-0.853 0.641zM7.039 27.947l0.641-0.853-0.528-0.396-0.59 0.295 0.477 0.954zM1.067 30.933l-0.954-0.477c-0.205 0.411-0.125 0.907 0.2 1.231s0.821 0.405 1.231 0.2l-0.477-0.954zM9.6 9.6l-0.592-0.888c-0.297 0.198-0.475 0.531-0.475 0.888h1.067zM22.4 22.4v1.067c0.357 0 0.69-0.178 0.887-0.475l-0.887-0.592zM13.342 10.721v0zM13.64 12.506v0zM12.719 14.632v0zM22.703 21.945v0zM21.279 18.658v0zM19.494 18.36v0zM17.368 19.281v0zM0 16c0 3.601 1.191 6.927 3.2 9.602l1.706-1.281c-1.741-2.318-2.772-5.197-2.772-8.32h-2.133zM16 0c-8.837 0-16 7.163-16 16h2.133c0-7.658 6.208-13.867 13.867-13.867v-2.133zM32 16c0-8.837-7.164-16-16-16v2.133c7.658 0 13.867 6.208 13.867 13.867h2.133zM16 32c8.836 0 16-7.164 16-16h-2.133c0 7.658-6.208 13.867-13.867 13.867v2.133zM6.398 28.8c2.674 2.009 6 3.2 9.602 3.2v-2.133c-3.123 0-6.003-1.031-8.32-2.772l-1.281 1.706zM1.544 31.887l5.972-2.986-0.954-1.908-5.972 2.986 0.954 1.908zM3.099 24.484l-2.986 5.972 1.908 0.954 2.986-5.972-1.908-0.954zM8.533 9.6v2.133h2.133v-2.133h-2.133zM20.267 23.467h2.133v-2.133h-2.133v2.133zM8.533 11.733c0 6.48 5.253 11.733 11.733 11.733v-2.133c-5.302 0-9.6-4.298-9.6-9.6h-2.133zM10.192 10.488l0.455-0.303-1.183-1.775-0.455 0.303 1.183 1.775zM12.29 10.896l0.297 1.785 2.104-0.351-0.297-1.785-2.104 0.351zM12.127 13.744l-2.052 1.368 1.183 1.775 2.052-1.368-1.183-1.775zM12.588 12.681c0.069 0.414-0.111 0.83-0.46 1.063l1.183 1.775c1.048-0.698 1.588-1.947 1.381-3.189l-2.104 0.351zM10.646 10.184c0.644-0.429 1.517-0.051 1.644 0.712l2.104-0.351c-0.382-2.29-2.999-3.425-4.931-2.136l1.183 1.775zM23.287 22.992l0.303-0.455-1.775-1.183-0.303 0.455 1.775 1.184zM21.454 17.605l-1.785-0.297-0.351 2.104 1.785 0.297 0.351-2.104zM16.481 18.689l-1.368 2.052 1.775 1.183 1.368-2.052-1.775-1.183zM19.669 17.308c-1.242-0.207-2.49 0.334-3.189 1.381l1.775 1.183c0.233-0.349 0.649-0.529 1.063-0.46l0.351-2.104zM23.591 22.537c1.288-1.932 0.154-4.55-2.136-4.932l-0.351 2.104c0.764 0.127 1.141 1 0.712 1.644l1.775 1.183z"></path>
</symbol>
<symbol id="icon-letter" viewBox="0 0 32 32">
<path d="M13.258 4.333h5.484c2.45-0 4.391-0 5.91 0.204 1.563 0.21 2.829 0.653 3.826 1.651s1.441 2.263 1.651 3.826c0.204 1.519 0.204 3.46 0.204 5.91v0.15c0 2.45 0 4.391-0.204 5.91-0.21 1.563-0.653 2.829-1.651 3.826s-2.263 1.441-3.826 1.651c-1.519 0.204-3.46 0.204-5.91 0.204h-5.484c-2.45 0-4.391 0-5.91-0.204-1.563-0.21-2.829-0.653-3.826-1.651s-1.441-2.263-1.651-3.826c-0.204-1.519-0.204-3.46-0.204-5.91v-0.15c-0-2.45-0-4.391 0.204-5.91 0.21-1.563 0.653-2.829 1.651-3.826s2.263-1.441 3.826-1.651c1.519-0.204 3.46-0.204 5.91-0.204zM7.614 6.52c-1.341 0.18-2.114 0.519-2.679 1.083s-0.902 1.337-1.083 2.679c-0.184 1.37-0.186 3.176-0.186 5.719s0.002 4.349 0.186 5.719c0.18 1.341 0.519 2.114 1.083 2.679s1.337 0.903 2.679 1.083c1.37 0.184 3.176 0.186 5.719 0.186h5.333c2.542 0 4.349-0.002 5.719-0.186 1.341-0.18 2.114-0.519 2.679-1.083s0.903-1.337 1.083-2.679c0.184-1.37 0.186-3.177 0.186-5.719s-0.002-4.349-0.186-5.719c-0.18-1.341-0.519-2.114-1.083-2.679s-1.337-0.902-2.679-1.083c-1.37-0.184-3.177-0.186-5.719-0.186h-5.333c-2.542 0-4.349 0.002-5.719 0.186zM7.232 10.026c0.354-0.424 0.984-0.482 1.408-0.128l2.879 2.399c1.244 1.037 2.108 1.754 2.837 2.223 0.706 0.454 1.184 0.606 1.645 0.606s0.939-0.152 1.645-0.606c0.729-0.469 1.593-1.186 2.837-2.223l2.879-2.399c0.424-0.354 1.055-0.296 1.408 0.128s0.296 1.055-0.128 1.408l-2.929 2.441c-1.182 0.985-2.14 1.783-2.985 2.327-0.881 0.566-1.738 0.924-2.726 0.924s-1.846-0.358-2.726-0.924c-0.845-0.544-1.803-1.342-2.985-2.327l-2.929-2.441c-0.424-0.354-0.482-0.984-0.128-1.408z"></path>
</symbol>
<symbol id="icon-phone" viewBox="0 0 32 32">
<path d="M22 20c-2 2-2 4-4 4s-4-2-6-4-4-4-4-6 2-2 4-4-4-8-6-8-6 6-6 6c0 4 4.109 12.109 8 16s12 8 16 8c0 0 6-4 6-6s-6-8-8-6z"></path>
</symbol>
<symbol id="icon-github" viewBox="0 0 32 32">
<path stroke-linejoin="round" stroke-linecap="round" stroke-miterlimit="4" stroke-width="0.48" d="M20.126 28.333c0.005-0.778 0.010-3.479 0.010-4.548 0-1.545-0.528-2.556-1.12-3.068 3.675-0.411 7.534-1.811 7.534-8.178 0-1.809-0.637-3.289-1.696-4.447 0.169-0.419 0.735-2.105-0.165-4.387 0 0-1.383-0.445-4.534 1.701-1.319-0.369-2.729-0.551-4.131-0.559-1.402 0.007-2.812 0.19-4.131 0.559-3.151-2.146-4.534-1.701-4.534-1.701-0.9 2.282-0.334 3.967-0.165 4.387-1.059 1.158-1.696 2.638-1.696 4.447 0 6.367 3.858 7.767 7.533 8.178-0.592 0.512-1.12 1.523-1.12 3.068 0 1.069 0.005 3.77 0.010 4.548M4.5 21.667c1.657 0.117 2.612 1.622 2.612 1.622 1.472 2.533 3.863 1.8 4.803 1.378"></path>
</symbol>
<symbol id="icon-link" viewBox="0 0 32 32">
<path d="M14.101 3.071c1.966-1.966 4.633-3.071 7.414-3.071 5.791 0 10.485 4.694 10.485 10.485 0 2.781-1.105 5.448-3.071 7.414l-4.101 4.101-2.828-2.828 4.101-4.101c1.216-1.216 1.899-2.866 1.899-4.586 0-3.582-2.904-6.485-6.485-6.485-1.72 0-3.37 0.683-4.586 1.899l-4.101 4.101-2.828-2.828 4.101-4.101z"></path>
<path d="M15.071 26.101l4.101-4.101 2.828 2.828-4.101 4.101c-1.966 1.966-4.633 3.071-7.414 3.071-5.791 0-10.485-4.694-10.485-10.485 0-2.781 1.105-5.448 3.071-7.414l4.101-4.101 2.828 2.828-4.101 4.101c-1.216 1.216-1.899 2.866-1.899 4.586 0 3.582 2.904 6.485 6.485 6.485 1.72 0 3.37-0.683 4.586-1.899z"></path>
<path d="M11.414 23.414l12-12-2.828-2.828-12 12 2.828 2.828z"></path>
</symbol>
<!-- ........... -->
<symbol id="icon-google-map" viewBox="0 0 32 32">
<path d="M26.242 5.67l-5.081 2.957-5.443-2.95-5.506 3.022h-10.212v17.228h10.48l5.242-3.324 5.464 3.421 4.922-3.445 5.893 3.75v-17.428l-5.758-3.232zM0.979 24.948v-15.27h8.858l0.010 15.27h-8.868zM20.673 16.64l-0.709-0.473-0.543 0.815 1.252 0.835v6.732l-4.471-2.8h0.032v-6.235l0.725 0.483 0.543-0.815-1.268-0.846v-5.905h-0.979v5.918l-1.25 0.833 0.543 0.815 0.707-0.471v6.214l-4.428 2.808-0.010-15.063 4.439-2.437v0.47h0.979v-0.447l4.439 2.406v7.163zM25.635 20.77v0.945l-3.982 2.788v-6.676l1.266-0.844-0.543-0.815-0.723 0.482v-7.175l3.982-2.317v7.166l-1.29 0.86 0.543 0.815 0.747-0.498v4.226h0.979v-4.185l0.685 0.457 0.543-0.815-1.229-0.819v-7.361l4.407 2.473v15.070l-4.407-2.804v-0.972h-0.979z"></path>
<path d="M5.414 10.669c-1.356 0-2.459 1.103-2.459 2.459 0 1.204 1.736 3.344 2.083 3.761l0.376 0.45 0.376-0.45c0.348-0.417 2.083-2.556 2.083-3.761 0-1.356-1.103-2.459-2.459-2.459zM5.413 15.79c-0.705-0.92-1.48-2.132-1.48-2.662 0-0.816 0.664-1.48 1.48-1.48s1.48 0.664 1.48 1.48c0 0.53-0.775 1.742-1.48 2.662z"></path>
<path d="M4.941 12.871h0.914v0.979h-0.914v-0.979z"></path>
<path d="M2.982 18.289h4.896v0.979h-4.896v-0.979z"></path>
<path d="M3.896 19.79h3.003v0.979h-3.003v-0.979z"></path>
<path d="M3.439 23.185h1.044v0.979h-1.045v-0.979z"></path>
<path d="M4.941 23.185h0.914v0.979h-0.914v-0.979z"></path>
<path d="M6.442 23.185h0.914v0.979h-0.914v-0.979z"></path>
</symbol>
<symbol id="icon-star" viewBox="0 0 32 32">
<path stroke-linejoin="miter" stroke-linecap="butt" stroke-miterlimit="4" stroke-width="2.4" d="M12.4 9.394l3.6-6.822 3.6 6.822c0.318 0.603 0.899 1.025 1.571 1.141l7.601 1.315-5.376 5.532c-0.475 0.489-0.697 1.171-0.6 1.846l1.098 7.635-6.922-3.404c-0.612-0.301-1.329-0.301-1.941 0l-6.922 3.404 1.098-7.635c0.097-0.675-0.125-1.357-0.6-1.846l-5.376-5.532 7.601-1.315c0.672-0.116 1.252-0.538 1.571-1.141zM29.035 11.579v0zM7.767 27.031c0 0 0 0 0 0h-0z"></path>
</symbol>
<symbol id="icon-checkmark" viewBox="0 0 32 32">
<path d="M27 4l-15 15-7-7-5 5 12 12 20-20z"></path>
</symbol>

<symbol id="icon-error" viewBox="0 0 32 32">
<path d="M15.457 26.783c-1.929-1.929-3.893-4.052-5.376-6.277-0.533-0.799-1.009-1.62-1.402-2.458h1.716c0.283 0.534 0.606 1.070 0.963 1.606 1.264 1.896 2.921 3.745 4.641 5.495 1.72-1.75 3.377-3.599 4.641-5.495 0.358-0.536 0.681-1.072 0.963-1.606h1.716c-0.392 0.838-0.869 1.659-1.402 2.458-1.483 2.225-3.447 4.348-5.376 6.277l-0.543 0.543-0.543-0.543zM24.448 13.44c0 0.602-0.063 1.2-0.18 1.792h-1.571c0.141-0.602 0.215-1.2 0.215-1.792 0-4.056-2.856-6.912-6.912-6.912s-6.912 2.856-6.912 6.912c0 0.592 0.075 1.19 0.215 1.792h-1.571c-0.117-0.592-0.18-1.19-0.18-1.792 0-4.904 3.544-8.448 8.448-8.448s8.448 3.544 8.448 8.448zM18.688 13.44c0 0.688-0.259 1.316-0.684 1.792h-4.007c-0.426-0.476-0.684-1.104-0.684-1.792 0-1.485 1.203-2.688 2.688-2.688s2.688 1.203 2.688 2.688zM14.848 13.44c0-0.636 0.516-1.152 1.152-1.152s1.152 0.516 1.152 1.152c0 0.636-0.516 1.152-1.152 1.152s-1.152-0.516-1.152-1.152zM2.56 17.408h26.88v-1.536h-26.88v1.536z"></path>
</symbol>
</defs>
</svg>
